<svg xmlns="http://www.w3.org/2000/svg" viewBox="0 0 14.4639 12.5042"><g transform="translate(0 -5.71076)"><path fill="#EF4056" fill-rule="evenodd" d="M13.119 5.71076H1.39568C.634414 5.71076 0 6.27696 0 7.0154v4.209c0 3.8152 3.24794 6.9906 7.25729 6.9906 3.98391 0 7.20661-3.1754 7.20661-6.9906V7.0154c0-.73844-.609-1.30464-1.34491-1.30464z" clip-rule="evenodd"/><path fill="#fff" d="M7.917 14.0796 11.3681 10.9291c.3552-.3692.3552-.9846 0-1.37842-.3553-.34462-.9896-.39382-1.3449 0L7.25729 12.0859 4.5422 9.55069c-.38071-.39382-1.01512-.34462-1.39569 0-.40599.39382-.35528 1.00921 0 1.37841l3.40036 3.1505c.203.1969.45671.2709.71042.2709.203 0 .48213-.074.65971-.2709z"/></g></svg>
