<svg width="512" height="512" viewBox="0 0 512 512" xmlns="http://www.w3.org/2000/svg">
  <g transform="translate(117.05 76.00) scale(0.78947)" fill="#6D28D9" fill-rule="evenodd">
    <g transform="translate(0.000000,456.000000) scale(0.100000,-0.100000)">
    <path d="M181 4403 c-100 -373 3 -811 251 -1067 70 -73 89 -68 24 6 -92 104
-179 314 -211 508 -26 151 -5 460 30 460 51 0 289 -111 431 -199 306 -193 530
-388 1146 -1000 241 -239 440 -432 443 -429 7 6 -174 245 -259 343 -656 754
-1274 1258 -1707 1389 -119 36 -136 35 -148 -11z"/>
    <path d="M325 4157 c-15 -36 2 -289 24 -372 61 -233 237 -469 454 -610 141
-91 232 -131 621 -275 282 -105 377 -147 501 -220 170 -101 190 -127 40 -54
-149 73 -324 133 -580 199 -359 93 -522 147 -730 242 -77 36 -146 67 -154 70
-17 8 -9 -30 34 -157 86 -255 228 -445 425 -572 94 -60 122 -63 43 -4 -146
110 -270 286 -353 502 -15 41 -27 74 -25 74 2 0 21 -12 42 -26 123 -84 347
-169 638 -243 199 -50 310 -87 400 -135 39 -20 61 -34 50 -32 -11 3 -38 9 -60
15 -82 21 -255 51 -412 71 -89 11 -224 36 -300 55 -76 19 -139 35 -141 35 -13
0 76 -105 135 -159 246 -227 580 -296 1017 -210 l118 23 30 63 c16 34 50 90
75 124 l46 63 -49 45 c-894 835 -1107 1027 -1300 1172 -135 103 -329 229 -349
229 -13 0 7 -56 60 -165 136 -282 356 -490 836 -791 76 -48 137 -89 135 -91
-5 -5 -197 91 -346 172 -435 236 -744 550 -886 899 -24 59 -34 76 -39 63z"/>
    <path d="M3120 3334 c-107 -69 -191 -172 -225 -273 l-15 -48 -53 5 c-130 11
-221 -118 -163 -230 14 -27 14 -28 -12 -34 -241 -53 -408 -237 -522 -575 -29
-85 -28 -89 25 -89 190 0 371 96 475 252 45 67 47 66 24 -13 -18 -61 -59 -143
-103 -209 -38 -55 -38 -72 -5 -130 95 -164 129 -259 143 -399 l7 -76 12 40
c32 106 9 269 -57 410 l-38 81 35 49 c50 74 101 182 114 247 7 32 15 58 19 58
4 0 34 -43 67 -94 l61 -95 84 -26 c150 -45 372 -92 346 -72 -6 5 -266 111
-319 131 -63 23 -63 23 -105 106 -21 41 -55 103 -76 138 -34 55 -39 72 -39
122 l0 59 31 -9 c146 -42 260 118 174 245 -30 44 -27 54 54 139 70 74 146 124
253 166 127 51 123 68 -7 35 -127 -33 -232 -99 -323 -201 -55 -61 -65 -56 -35
18 36 92 136 217 228 285 50 37 5 26 -55 -13z"/>
    <path d="M1705 2248 c-44 -5 -143 -7 -220 -4 -172 5 -140 -12 38 -21 119 -6
281 10 293 28 6 10 0 10 -111 -3z"/>
    <path d="M2421 2054 c-75 -32 -159 -47 -271 -49 l-115 -2 -29 -44 c-137 -208
-356 -465 -525 -615 -179 -160 -315 -242 -581 -349 -385 -155 -594 -326 -730
-597 -64 -128 -64 -155 0 -55 133 207 389 410 655 520 l90 37 -60 -52 c-258
-221 -391 -436 -431 -695 -4 -29 -3 -43 5 -43 6 0 11 5 11 11 0 24 64 168 109
245 91 154 216 293 386 429 174 139 161 133 371 164 442 65 958 518 1123 986
40 112 39 129 -8 109z m-354 -456 l45 -13 -84 -89 -84 -90 -32 13 c-37 16 -79
62 -88 97 -5 19 6 40 51 99 l57 75 45 -40 c25 -22 65 -45 90 -52z m-213 -208
l38 -23 -38 -33 c-46 -40 -124 -94 -135 -94 -20 0 -79 64 -79 84 0 13 23 48
56 84 l56 62 32 -28 c18 -15 49 -39 70 -52z m-274 -119 c0 -5 20 -22 45 -39
l44 -29 -91 -42 c-85 -39 -214 -78 -225 -67 -2 2 31 31 74 64 43 33 92 74 108
91 31 31 45 38 45 22z"/>
    </g>
  </g>
</svg>
